<?xml version="1.0" encoding="UTF-8"?>
<!DOCTYPE svg PUBLIC "-//W3C//DTD SVG 1.1//EN" "http://www.w3.org/Graphics/SVG/1.1/DTD/svg11.dtd">
<svg xmlns="http://www.w3.org/2000/svg" version="1.1" width="400px" height="400px" style="shape-rendering:geometricPrecision; text-rendering:geometricPrecision; image-rendering:optimizeQuality; fill-rule:evenodd; clip-rule:evenodd" xmlns:xlink="http://www.w3.org/1999/xlink">
<g><path style="opacity:1" fill="#c16e00" d="M 249.5,74.5 C 232.833,74.5 216.167,74.5 199.5,74.5C 199.5,66.1667 199.5,57.8333 199.5,49.5C 216.167,49.5 232.833,49.5 249.5,49.5C 249.5,57.8333 249.5,66.1667 249.5,74.5 Z"/></g>
<g><path style="opacity:1" fill="#c16e00" d="M 299.5,74.5 C 299.5,66.1667 299.5,57.8333 299.5,49.5C 307.833,49.5 316.167,49.5 324.5,49.5C 324.5,57.8333 324.5,66.1667 324.5,74.5C 316.167,74.5 307.833,74.5 299.5,74.5 Z"/></g>
<g><path style="opacity:1" fill="#c16e00" d="M 199.5,74.5 C 199.5,91.1667 199.5,107.833 199.5,124.5C 266.167,124.5 332.833,124.5 399.5,124.5C 399.5,199.5 399.5,274.5 399.5,349.5C 266.167,349.5 132.833,349.5 -0.5,349.5C -0.5,274.5 -0.5,199.5 -0.5,124.5C 57.8333,124.5 116.167,124.5 174.5,124.5C 174.5,107.833 174.5,91.1667 174.5,74.5C 182.833,74.5 191.167,74.5 199.5,74.5 Z"/></g>
<g><path style="opacity:1" fill="#c16e00" d="M 249.5,74.5 C 266.167,74.5 282.833,74.5 299.5,74.5C 299.5,82.8333 299.5,91.1667 299.5,99.5C 282.833,99.5 266.167,99.5 249.5,99.5C 249.5,91.1667 249.5,82.8333 249.5,74.5 Z"/></g>
<g><path style="opacity:1" fill="#bd6900" d="M 73.5,142.5 C 169.66,142.783 265.827,142.783 362,142.5C 366.833,142.667 371.667,142.833 376.5,143C 380.153,144.132 381.987,146.632 382,150.5C 382.667,207.833 382.667,265.167 382,322.5C 381.5,328.333 378.333,331.5 372.5,332C 368.5,332.167 364.5,332.333 360.5,332.5C 277.843,331.505 195.176,331.505 112.5,332.5C 82.5043,331.79 52.5043,331.29 22.5,331C 21,329.5 19.5,328 18,326.5C 15.9921,296.467 16.1588,266.467 18.5,236.5C 17.3759,228.376 16.7092,220.21 16.5,212C 18.079,190.878 18.9123,169.711 19,148.5C 20.5429,146.622 22.3762,145.122 24.5,144C 41.0051,143.831 57.3385,143.331 73.5,142.5 Z"/></g>
<g><path style="opacity:1" fill="#0b0300" d="M 74.5,149.5 C 74.5,157.833 74.5,166.167 74.5,174.5C 66.1667,174.5 57.8333,174.5 49.5,174.5C 49.5,182.833 49.5,191.167 49.5,199.5C 41.1667,199.5 32.8333,199.5 24.5,199.5C 24.5,182.833 24.5,166.167 24.5,149.5C 41.1667,149.5 57.8333,149.5 74.5,149.5 Z"/></g>
<g><path style="opacity:1" fill="#0b0300" d="M 99.5,149.5 C 107.833,149.5 116.167,149.5 124.5,149.5C 124.5,157.833 124.5,166.167 124.5,174.5C 116.167,174.5 107.833,174.5 99.5,174.5C 99.5,166.167 99.5,157.833 99.5,149.5 Z"/></g>
<g><path style="opacity:1" fill="#0b0300" d="M 149.5,149.5 C 166.167,149.5 182.833,149.5 199.5,149.5C 199.5,157.833 199.5,166.167 199.5,174.5C 182.833,174.5 166.167,174.5 149.5,174.5C 149.5,166.167 149.5,157.833 149.5,149.5 Z"/></g>
<g><path style="opacity:1" fill="#0b0300" d="M 224.5,149.5 C 241.167,149.5 257.833,149.5 274.5,149.5C 274.5,157.833 274.5,166.167 274.5,174.5C 257.833,174.5 241.167,174.5 224.5,174.5C 224.5,166.167 224.5,157.833 224.5,149.5 Z"/></g>
<g><path style="opacity:1" fill="#0b0300" d="M 299.5,149.5 C 316.167,149.5 332.833,149.5 349.5,149.5C 349.5,157.833 349.5,166.167 349.5,174.5C 332.833,174.5 316.167,174.5 299.5,174.5C 299.5,166.167 299.5,157.833 299.5,149.5 Z"/></g>
<g><path style="opacity:1" fill="#3a1b00" d="M 349.5,149.5 C 357.833,149.5 366.167,149.5 374.5,149.5C 374.5,207.833 374.5,266.167 374.5,324.5C 366.167,324.5 357.833,324.5 349.5,324.5C 349.5,316.167 349.5,307.833 349.5,299.5C 349.5,291.167 349.5,282.833 349.5,274.5C 349.5,266.167 349.5,257.833 349.5,249.5C 349.5,241.167 349.5,232.833 349.5,224.5C 349.5,216.167 349.5,207.833 349.5,199.5C 349.5,191.167 349.5,182.833 349.5,174.5C 349.5,166.167 349.5,157.833 349.5,149.5 Z"/></g>
<g><path style="opacity:1" fill="#3a1b00" d="M 74.5,149.5 C 82.8333,149.5 91.1667,149.5 99.5,149.5C 99.5,157.833 99.5,166.167 99.5,174.5C 99.5,182.833 99.5,191.167 99.5,199.5C 99.5,207.833 99.5,216.167 99.5,224.5C 99.5,232.833 99.5,241.167 99.5,249.5C 99.5,257.833 99.5,266.167 99.5,274.5C 82.8333,274.5 66.1667,274.5 49.5,274.5C 49.5,282.833 49.5,291.167 49.5,299.5C 41.1667,299.5 32.8333,299.5 24.5,299.5C 24.5,282.833 24.5,266.167 24.5,249.5C 32.8333,249.5 41.1667,249.5 49.5,249.5C 57.8333,249.5 66.1667,249.5 74.5,249.5C 74.5,241.167 74.5,232.833 74.5,224.5C 66.1667,224.5 57.8333,224.5 49.5,224.5C 41.1667,224.5 32.8333,224.5 24.5,224.5C 24.5,216.167 24.5,207.833 24.5,199.5C 32.8333,199.5 41.1667,199.5 49.5,199.5C 57.8333,199.5 66.1667,199.5 74.5,199.5C 74.5,191.167 74.5,182.833 74.5,174.5C 74.5,166.167 74.5,157.833 74.5,149.5 Z"/></g>
<g><path style="opacity:1" fill="#3a1b00" d="M 124.5,149.5 C 132.833,149.5 141.167,149.5 149.5,149.5C 149.5,157.833 149.5,166.167 149.5,174.5C 149.5,182.833 149.5,191.167 149.5,199.5C 149.5,207.833 149.5,216.167 149.5,224.5C 141.167,224.5 132.833,224.5 124.5,224.5C 124.5,216.167 124.5,207.833 124.5,199.5C 124.5,191.167 124.5,182.833 124.5,174.5C 124.5,166.167 124.5,157.833 124.5,149.5 Z"/></g>
<g><path style="opacity:1" fill="#3a1b00" d="M 199.5,149.5 C 207.833,149.5 216.167,149.5 224.5,149.5C 224.5,157.833 224.5,166.167 224.5,174.5C 224.5,182.833 224.5,191.167 224.5,199.5C 224.5,207.833 224.5,216.167 224.5,224.5C 216.167,224.5 207.833,224.5 199.5,224.5C 199.5,216.167 199.5,207.833 199.5,199.5C 199.5,191.167 199.5,182.833 199.5,174.5C 199.5,166.167 199.5,157.833 199.5,149.5 Z"/></g>
<g><path style="opacity:1" fill="#3a1b00" d="M 274.5,149.5 C 282.833,149.5 291.167,149.5 299.5,149.5C 299.5,157.833 299.5,166.167 299.5,174.5C 299.5,182.833 299.5,191.167 299.5,199.5C 299.5,207.833 299.5,216.167 299.5,224.5C 291.167,224.5 282.833,224.5 274.5,224.5C 274.5,216.167 274.5,207.833 274.5,199.5C 274.5,191.167 274.5,182.833 274.5,174.5C 274.5,166.167 274.5,157.833 274.5,149.5 Z"/></g>
<g><path style="opacity:1" fill="#be6a00" d="M 74.5,174.5 C 74.5,182.833 74.5,191.167 74.5,199.5C 66.1667,199.5 57.8333,199.5 49.5,199.5C 49.5,191.167 49.5,182.833 49.5,174.5C 57.8333,174.5 66.1667,174.5 74.5,174.5 Z"/></g>
<g><path style="opacity:1" fill="#bd6a00" d="M 99.5,174.5 C 107.833,174.5 116.167,174.5 124.5,174.5C 124.5,182.833 124.5,191.167 124.5,199.5C 116.167,199.5 107.833,199.5 99.5,199.5C 99.5,191.167 99.5,182.833 99.5,174.5 Z"/></g>
<g><path style="opacity:1" fill="#c06c00" d="M 149.5,174.5 C 166.167,174.5 182.833,174.5 199.5,174.5C 199.5,182.833 199.5,191.167 199.5,199.5C 182.833,199.5 166.167,199.5 149.5,199.5C 149.5,191.167 149.5,182.833 149.5,174.5 Z"/></g>
<g><path style="opacity:1" fill="#c06c00" d="M 224.5,174.5 C 241.167,174.5 257.833,174.5 274.5,174.5C 274.5,182.833 274.5,191.167 274.5,199.5C 257.833,199.5 241.167,199.5 224.5,199.5C 224.5,191.167 224.5,182.833 224.5,174.5 Z"/></g>
<g><path style="opacity:1" fill="#c06c00" d="M 299.5,174.5 C 316.167,174.5 332.833,174.5 349.5,174.5C 349.5,182.833 349.5,191.167 349.5,199.5C 332.833,199.5 316.167,199.5 299.5,199.5C 299.5,191.167 299.5,182.833 299.5,174.5 Z"/></g>
<g><path style="opacity:1" fill="#421f00" d="M 99.5,199.5 C 107.833,199.5 116.167,199.5 124.5,199.5C 124.5,207.833 124.5,216.167 124.5,224.5C 116.167,224.5 107.833,224.5 99.5,224.5C 99.5,216.167 99.5,207.833 99.5,199.5 Z"/></g>
<g><path style="opacity:1" fill="#421f00" d="M 149.5,199.5 C 166.167,199.5 182.833,199.5 199.5,199.5C 199.5,207.833 199.5,216.167 199.5,224.5C 191.167,224.5 182.833,224.5 174.5,224.5C 166.167,224.5 157.833,224.5 149.5,224.5C 149.5,216.167 149.5,207.833 149.5,199.5 Z"/></g>
<g><path style="opacity:1" fill="#421f00" d="M 224.5,199.5 C 241.167,199.5 257.833,199.5 274.5,199.5C 274.5,207.833 274.5,216.167 274.5,224.5C 266.167,224.5 257.833,224.5 249.5,224.5C 241.167,224.5 232.833,224.5 224.5,224.5C 224.5,216.167 224.5,207.833 224.5,199.5 Z"/></g>
<g><path style="opacity:1" fill="#421f00" d="M 299.5,199.5 C 316.167,199.5 332.833,199.5 349.5,199.5C 349.5,207.833 349.5,216.167 349.5,224.5C 341.167,224.5 332.833,224.5 324.5,224.5C 316.167,224.5 307.833,224.5 299.5,224.5C 299.5,216.167 299.5,207.833 299.5,199.5 Z"/></g>
<g><path style="opacity:1" fill="#0b0300" d="M 24.5,224.5 C 32.8333,224.5 41.1667,224.5 49.5,224.5C 49.5,232.833 49.5,241.167 49.5,249.5C 41.1667,249.5 32.8333,249.5 24.5,249.5C 24.5,241.167 24.5,232.833 24.5,224.5 Z"/></g>
<g><path style="opacity:1" fill="#bd6900" d="M 49.5,224.5 C 57.8333,224.5 66.1667,224.5 74.5,224.5C 74.5,232.833 74.5,241.167 74.5,249.5C 66.1667,249.5 57.8333,249.5 49.5,249.5C 49.5,241.167 49.5,232.833 49.5,224.5 Z"/></g>
<g><path style="opacity:1" fill="#be6a00" d="M 99.5,224.5 C 107.833,224.5 116.167,224.5 124.5,224.5C 132.833,224.5 141.167,224.5 149.5,224.5C 149.5,232.833 149.5,241.167 149.5,249.5C 132.833,249.5 116.167,249.5 99.5,249.5C 99.5,241.167 99.5,232.833 99.5,224.5 Z"/></g>
<g><path style="opacity:1" fill="#3a1b00" d="M 149.5,224.5 C 157.833,224.5 166.167,224.5 174.5,224.5C 174.5,232.833 174.5,241.167 174.5,249.5C 174.5,257.833 174.5,266.167 174.5,274.5C 166.167,274.5 157.833,274.5 149.5,274.5C 149.5,266.167 149.5,257.833 149.5,249.5C 149.5,241.167 149.5,232.833 149.5,224.5 Z"/></g>
<g><path style="opacity:1" fill="#3a1b00" d="M 224.5,224.5 C 232.833,224.5 241.167,224.5 249.5,224.5C 249.5,232.833 249.5,241.167 249.5,249.5C 249.5,257.833 249.5,266.167 249.5,274.5C 241.167,274.5 232.833,274.5 224.5,274.5C 224.5,266.167 224.5,257.833 224.5,249.5C 224.5,241.167 224.5,232.833 224.5,224.5 Z"/></g>
<g><path style="opacity:1" fill="#be6a00" d="M 249.5,224.5 C 257.833,224.5 266.167,224.5 274.5,224.5C 282.833,224.5 291.167,224.5 299.5,224.5C 299.5,232.833 299.5,241.167 299.5,249.5C 282.833,249.5 266.167,249.5 249.5,249.5C 249.5,241.167 249.5,232.833 249.5,224.5 Z"/></g>
<g><path style="opacity:1" fill="#3a1b00" d="M 299.5,224.5 C 307.833,224.5 316.167,224.5 324.5,224.5C 324.5,232.833 324.5,241.167 324.5,249.5C 324.5,257.833 324.5,266.167 324.5,274.5C 316.167,274.5 307.833,274.5 299.5,274.5C 299.5,266.167 299.5,257.833 299.5,249.5C 299.5,241.167 299.5,232.833 299.5,224.5 Z"/></g>
<g><path style="opacity:1" fill="#bd6900" d="M 324.5,224.5 C 332.833,224.5 341.167,224.5 349.5,224.5C 349.5,232.833 349.5,241.167 349.5,249.5C 341.167,249.5 332.833,249.5 324.5,249.5C 324.5,241.167 324.5,232.833 324.5,224.5 Z"/></g>
<g><path style="opacity:1" fill="#bf6b00" d="M 174.5,224.5 C 182.833,224.5 191.167,224.5 199.5,224.5C 207.833,224.5 216.167,224.5 224.5,224.5C 224.5,232.833 224.5,241.167 224.5,249.5C 207.833,249.5 191.167,249.5 174.5,249.5C 174.5,241.167 174.5,232.833 174.5,224.5 Z"/></g>
<g><path style="opacity:1" fill="#421f00" d="M 99.5,249.5 C 116.167,249.5 132.833,249.5 149.5,249.5C 149.5,257.833 149.5,266.167 149.5,274.5C 141.167,274.5 132.833,274.5 124.5,274.5C 116.167,274.5 107.833,274.5 99.5,274.5C 99.5,266.167 99.5,257.833 99.5,249.5 Z"/></g>
<g><path style="opacity:1" fill="#411e00" d="M 174.5,249.5 C 191.167,249.5 207.833,249.5 224.5,249.5C 224.5,257.833 224.5,266.167 224.5,274.5C 207.833,274.5 191.167,274.5 174.5,274.5C 174.5,266.167 174.5,257.833 174.5,249.5 Z"/></g>
<g><path style="opacity:1" fill="#421f00" d="M 249.5,249.5 C 266.167,249.5 282.833,249.5 299.5,249.5C 299.5,257.833 299.5,266.167 299.5,274.5C 291.167,274.5 282.833,274.5 274.5,274.5C 266.167,274.5 257.833,274.5 249.5,274.5C 249.5,266.167 249.5,257.833 249.5,249.5 Z"/></g>
<g><path style="opacity:1" fill="#421f00" d="M 324.5,249.5 C 332.833,249.5 341.167,249.5 349.5,249.5C 349.5,257.833 349.5,266.167 349.5,274.5C 341.167,274.5 332.833,274.5 324.5,274.5C 324.5,266.167 324.5,257.833 324.5,249.5 Z"/></g>
<g><path style="opacity:1" fill="#3a1b00" d="M 99.5,274.5 C 107.833,274.5 116.167,274.5 124.5,274.5C 124.5,282.833 124.5,291.167 124.5,299.5C 124.5,307.833 124.5,316.167 124.5,324.5C 116.167,324.5 107.833,324.5 99.5,324.5C 99.5,316.167 99.5,307.833 99.5,299.5C 99.5,291.167 99.5,282.833 99.5,274.5 Z"/></g>
<g><path style="opacity:1" fill="#3a1b00" d="M 274.5,274.5 C 282.833,274.5 291.167,274.5 299.5,274.5C 299.5,282.833 299.5,291.167 299.5,299.5C 299.5,307.833 299.5,316.167 299.5,324.5C 291.167,324.5 282.833,324.5 274.5,324.5C 274.5,316.167 274.5,307.833 274.5,299.5C 274.5,291.167 274.5,282.833 274.5,274.5 Z"/></g>
<g><path style="opacity:1" fill="#be6a00" d="M 299.5,274.5 C 307.833,274.5 316.167,274.5 324.5,274.5C 332.833,274.5 341.167,274.5 349.5,274.5C 349.5,282.833 349.5,291.167 349.5,299.5C 332.833,299.5 316.167,299.5 299.5,299.5C 299.5,291.167 299.5,282.833 299.5,274.5 Z"/></g>
<g><path style="opacity:1" fill="#be6a00" d="M 99.5,274.5 C 99.5,282.833 99.5,291.167 99.5,299.5C 82.8333,299.5 66.1667,299.5 49.5,299.5C 49.5,291.167 49.5,282.833 49.5,274.5C 66.1667,274.5 82.8333,274.5 99.5,274.5 Z"/></g>
<g><path style="opacity:1" fill="#bc6900" d="M 124.5,274.5 C 132.833,274.5 141.167,274.5 149.5,274.5C 157.833,274.5 166.167,274.5 174.5,274.5C 191.167,274.5 207.833,274.5 224.5,274.5C 232.833,274.5 241.167,274.5 249.5,274.5C 257.833,274.5 266.167,274.5 274.5,274.5C 274.5,282.833 274.5,291.167 274.5,299.5C 224.5,299.5 174.5,299.5 124.5,299.5C 124.5,291.167 124.5,282.833 124.5,274.5 Z"/></g>
<g><path style="opacity:1" fill="#c16e00" d="M 130.5,280.5 C 176.5,280.5 222.5,280.5 268.5,280.5C 268.5,284.5 268.5,288.5 268.5,292.5C 222.5,292.5 176.5,292.5 130.5,292.5C 130.5,288.5 130.5,284.5 130.5,280.5 Z"/></g>
<g><path style="opacity:1" fill="#411e00" d="M 24.5,299.5 C 32.8333,299.5 41.1667,299.5 49.5,299.5C 66.1667,299.5 82.8333,299.5 99.5,299.5C 99.5,307.833 99.5,316.167 99.5,324.5C 74.5,324.5 49.5,324.5 24.5,324.5C 24.5,316.167 24.5,307.833 24.5,299.5 Z"/></g>
<g><path style="opacity:1" fill="#411e00" d="M 124.5,299.5 C 174.5,299.5 224.5,299.5 274.5,299.5C 274.5,307.833 274.5,316.167 274.5,324.5C 224.5,324.5 174.5,324.5 124.5,324.5C 124.5,316.167 124.5,307.833 124.5,299.5 Z"/></g>
<g><path style="opacity:1" fill="#421e00" d="M 299.5,299.5 C 316.167,299.5 332.833,299.5 349.5,299.5C 349.5,307.833 349.5,316.167 349.5,324.5C 332.833,324.5 316.167,324.5 299.5,324.5C 299.5,316.167 299.5,307.833 299.5,299.5 Z"/></g>
</svg>
